HIERARCHY
ROOT PELVIS
{
    OFFSET 0 0 0
    CHANNELS 6 Xposition Yposition Zposition Xrotation Yrotation Zrotation
    JOINT SPINE_NAVAL
    {
        OFFSET -2.0534851999999972 -15.5394837 -4.181665000000021
        CHANNELS 3 Xrotation Yrotation Zrotation
        JOINT SPINE_CHEST
        {
            OFFSET -0.1256637000000012 -12.880011000000001 -1.5139648999999735
            CHANNELS 3 Xrotation Yrotation Zrotation
            JOINT NECK
            {
                OFFSET 0.6955734000000007 -19.713171299999992 -0.8032470999999987
                CHANNELS 3 Xrotation Yrotation Zrotation
                JOINT HEAD
                {
                    OFFSET -1.3472442999999998 -6.821453900000006 -2.612817300000006
                    CHANNELS 3 Xrotation Yrotation Zrotation
                    JOINT NOSE
                    {
                        OFFSET -10.2120224 -6.3880370999999965 -8.271045000000004
                        CHANNELS 3 Xrotation Yrotation Zrotation
                    }
                    JOINT EYE_LEFT
                    {
                        OFFSET -5.676336600000002 -8.508123799999998 -9.185913100000016
                        CHANNELS 3 Xrotation Yrotation Zrotation
                    }
                    JOINT EAR_LEFT
                    {
                        OFFSET 5.389044199999998 -5.954736300000002 -7.205004899999994
                        CHANNELS 3 Xrotation Yrotation Zrotation
                    }
                    JOINT EYE_RIGHT
                    {
                        OFFSET -9.728736800000002 -8.933819600000003 -4.3443360000000215
                        CHANNELS 3 Xrotation Yrotation Zrotation
                    }
                    JOINT EAR_RIGHT
                    {
                        OFFSET -5.135905400000001 -7.024273700000004 6.481689400000005
                        CHANNELS 3 Xrotation Yrotation Zrotation
                    }
                }
            }
            JOINT CLAVICLE_LEFT
            {
                OFFSET 2.8376296999999995 -16.523620599999997 -0.8934326000000056
                CHANNELS 3 Xrotation Yrotation Zrotation
                JOINT SHOULDER_LEFT
                {
                    OFFSET 10.252911399999999 3.060675100000003 -7.381201199999987
                    CHANNELS 3 Xrotation Yrotation Zrotation
                    JOINT ELBOW_LEFT
                    {
                        OFFSET 3.705188000000004 24.848709099999997 -0.4947998000000098
                        CHANNELS 3 Xrotation Yrotation Zrotation
                        JOINT WRIST_LEFT
                        {
                            OFFSET -1.6777131000000054 20.755538899999998 -3.3462890000000245
                            CHANNELS 3 Xrotation Yrotation Zrotation
                            JOINT HAND_LEFT
                            {
                                OFFSET 2.300473100000005 8.163669200000001 2.175024400000029
                                CHANNELS 3 Xrotation Yrotation Zrotation
                                JOINT HANDTIP_LEFT
                                {
                                    OFFSET -0.051223800000002484 7.1441635 6.745263599999999
                                    CHANNELS 3 Xrotation Yrotation Zrotation
                                }
                            }
                            JOINT THUMB_LEFT
                            {
                                OFFSET -2.834121699999997 11.9597349 4.810522400000036
                                CHANNELS 3 Xrotation Yrotation Zrotation
                            }
                        }
                    }
                }
            }
            JOINT CLAVICLE_RIGHT
            {
                OFFSET -1.0794707999999986 -16.622052000000004 1.603588899999977
                CHANNELS 3 Xrotation Yrotation Zrotation
                JOINT SHOULDER_RIGHT
                {
                    OFFSET -10.558650200000002 3.7694825000000036 4.160668900000019
                    CHANNELS 3 Xrotation Yrotation Zrotation
                    JOINT ELBOW_RIGHT
                    {
                        OFFSET -3.171775099999999 24.1309143 7.949121100000002
                        CHANNELS 3 Xrotation Yrotation Zrotation
                        JOINT WRIST_RIGHT
                        {
                            OFFSET -3.3093597000000003 20.921231799999997 -2.7364501999999904
                            CHANNELS 3 Xrotation Yrotation Zrotation
                            JOINT HAND_RIGHT
                            {
                                OFFSET -0.3383876999999991 8.972045099999999 2.876147499999979
                                CHANNELS 3 Xrotation Yrotation Zrotation
                                JOINT HANDTIP_RIGHT
                                {
                                    OFFSET 7.4710163 5.7339547 -2.140478499999972
                                    CHANNELS 3 Xrotation Yrotation Zrotation
                                }
                            }
                            JOINT THUMB_RIGHT
                            {
                                OFFSET 3.8033332 12.8209585 -1.3018309999999929
                                CHANNELS 3 Xrotation Yrotation Zrotation
                            }
                        }
                    }
                }
            }
        }
    }
    JOINT PELVIS_LEFT
    {
        OFFSET 0.0 0.0 0.0
        CHANNELS 3 Xrotation Yrotation Zrotation
        JOINT HIP_LEFT
        {
            OFFSET 7.179837000000004 0.16621849999999938 -4.143481400000018
            CHANNELS 3 Xrotation Yrotation Zrotation
            JOINT KNEE_LEFT
            {
                OFFSET 1.8186462000000005 36.3250458 1.54128410000003
                CHANNELS 3 Xrotation Yrotation Zrotation
                JOINT ANKLE_LEFT
                {
                    OFFSET 5.139150999999998 31.740254200000003 13.285449299999982
                    CHANNELS 3 Xrotation Yrotation Zrotation
                    JOINT FOOT_LEFT
                    {
                        OFFSET -1.627920499999999 12.280194099999994 -11.693652399999973
                        CHANNELS 3 Xrotation Yrotation Zrotation
                    }
                }
            }
        }
    }
    JOINT PELVIS_RIGHT
    {
        OFFSET 0.0 0.0 0.0
        CHANNELS 3 Xrotation Yrotation Zrotation
        JOINT HIP_RIGHT
        {
            OFFSET -6.474380499999998 -0.14957740000000114 3.736352500000021
            CHANNELS 3 Xrotation Yrotation Zrotation
            JOINT KNEE_RIGHT
            {
                OFFSET 2.1862212999999997 35.5006073 7.567529299999978
                CHANNELS 3 Xrotation Yrotation Zrotation
                JOINT ANKLE_RIGHT
                {
                    OFFSET 6.129772899999997 33.16903229999999 9.909472700000014
                    CHANNELS 3 Xrotation Yrotation Zrotation
                    JOINT FOOT_RIGHT
                    {
                        OFFSET -9.378500299999999 10.563830600000006 -6.789648400000033
                        CHANNELS 3 Xrotation Yrotation Zrotation
                    }
                }
            }
        }
    }
}
MOTION
Frames: 15
Frame Time: 0.01
0 0 0 0.0 0.0 0.0 0.0 0.0 0.0 0.0 0.0 0.0 0.0 0.0 0.0 0.0 0.0 0.0 0.0 0.0 0.0 0.0 0.0 0.0 0.0 0.0 0.0 0.0 0.0 0.0 0.0 0.0 0.0 0.0 0.0 0.0 0 0 0 0 0 0 0.0 0.0 0.0 0.0 0.0 0.0 0.0 0.0 0.0 0.0 0.0 0.0 0.0 0.0 0.0 0 0 0 0 0 0 0.0 0.0 0.0 0.0 0.0 0.0 0.0 0.0 0.0 0 0 0 0.0 0.0 0.0 0.0 0.0 0.0 0.0 0.0 0.0 0 0 0 0.0 0.0 0.0 0 0 0 0 0 0 0 0 0 0 0 0 0 0 0 
0 0 0 0.0 0.0 0.0 0.0 0.0 0.0 0.0 0.0 0.0 0.0 0.0 0.0 0.0 0.0 0.0 0.0 0.0 0.0 0.0 0.0 0.0 0.0 0.0 0.0 0.0 0.0 0.0 0.0 0.0 0.0 0.0 0.0 0.0 0 0 0 0 0 0 0.0 0.0 0.0 0.0 0.0 0.0 0.0 0.0 0.0 0.0 0.0 0.0 0.0 0.0 0.0 0 0 0 0 0 0 0.0 0.0 0.0 0.0 0.0 0.0 0.0 0.0 0.0 0 0 0 0.0 0.0 0.0 0.0 0.0 0.0 0.0 0.0 0.0 0 0 0 0.0 0.0 0.0 0 0 0 0 0 0 0 0 0 0 0 0 0 0 0 
0 0 0 0.0 0.0 0.0 0.0 0.0 0.0 0.0 0.0 0.0 0.0 0.0 0.0 0.0 0.0 0.0 0.0 0.0 0.0 0.0 0.0 0.0 0.0 0.0 0.0 0.0 0.0 0.0 0.0 0.0 0.0 0.0 0.0 0.0 0 0 0 0 0 0 0.0 0.0 0.0 0.0 0.0 0.0 0.0 0.0 0.0 0.0 0.0 0.0 0.0 0.0 0.0 0 0 0 0 0 0 0.0 0.0 0.0 0.0 0.0 0.0 0.0 0.0 0.0 0 0 0 0.0 0.0 0.0 0.0 0.0 0.0 0.0 0.0 0.0 0 0 0 0.0 0.0 0.0 0 0 0 0 0 0 0 0 0 0 0 0 0 0 0 
0 0 0 0.0 0.0 0.0 0.0 0.0 0.0 0.0 0.0 0.0 0.0 0.0 0.0 0.0 0.0 0.0 0.0 0.0 0.0 0.0 0.0 0.0 0.0 0.0 0.0 0.0 0.0 0.0 0.0 0.0 0.0 0.0 0.0 0.0 0 0 0 0 0 0 0.0 0.0 0.0 0.0 0.0 0.0 0.0 0.0 0.0 0.0 0.0 0.0 0.0 0.0 0.0 0 0 0 0 0 0 0.0 0.0 0.0 0.0 0.0 0.0 0.0 0.0 0.0 0 0 0 0.0 0.0 0.0 0.0 0.0 0.0 0.0 0.0 0.0 0 0 0 0.0 0.0 0.0 0 0 0 0 0 0 0 0 0 0 0 0 0 0 0 
0 0 0 0.0 0.0 0.0 0.0 0.0 0.0 0.0 0.0 0.0 0.0 0.0 0.0 0.0 0.0 0.0 0.0 0.0 0.0 0.0 0.0 0.0 0.0 0.0 0.0 0.0 0.0 0.0 0.0 0.0 0.0 0.0 0.0 0.0 0 0 0 0 0 0 0.0 0.0 0.0 0.0 0.0 0.0 0.0 0.0 0.0 0.0 0.0 0.0 0.0 0.0 0.0 0 0 0 0 0 0 0.0 0.0 0.0 0.0 0.0 0.0 0.0 0.0 0.0 0 0 0 0.0 0.0 0.0 0.0 0.0 0.0 0.0 0.0 0.0 0 0 0 0.0 0.0 0.0 0 0 0 0 0 0 0 0 0 0 0 0 0 0 0 
0 0 0 0.0 0.0 0.0 0.0 0.0 0.0 0.0 0.0 0.0 0.0 0.0 0.0 0.0 0.0 0.0 0.0 0.0 0.0 0.0 0.0 0.0 0.0 0.0 0.0 0.0 0.0 0.0 0.0 0.0 0.0 0.0 0.0 0.0 0 0 0 0 0 0 0.0 0.0 0.0 0.0 0.0 0.0 0.0 0.0 0.0 0.0 0.0 0.0 0.0 0.0 0.0 0 0 0 0 0 0 0.0 0.0 0.0 0.0 0.0 0.0 0.0 0.0 0.0 0 0 0 0.0 0.0 0.0 0.0 0.0 0.0 0.0 0.0 0.0 0 0 0 0.0 0.0 0.0 0 0 0 0 0 0 0 0 0 0 0 0 0 0 0 
0 0 0 0.0 0.0 0.0 0.0 0.0 0.0 0.0 0.0 0.0 0.0 0.0 0.0 0.0 0.0 0.0 0.0 0.0 0.0 0.0 0.0 0.0 0.0 0.0 0.0 0.0 0.0 0.0 0.0 0.0 0.0 0.0 0.0 0.0 0 0 0 0 0 0 0.0 0.0 0.0 0.0 0.0 0.0 0.0 0.0 0.0 0.0 0.0 0.0 0.0 0.0 0.0 0 0 0 0 0 0 0.0 0.0 0.0 0.0 0.0 0.0 0.0 0.0 0.0 0 0 0 0.0 0.0 0.0 0.0 0.0 0.0 0.0 0.0 0.0 0 0 0 0.0 0.0 0.0 0 0 0 0 0 0 0 0 0 0 0 0 0 0 0 
0 0 0 0.0 0.0 0.0 0.0 0.0 0.0 0.0 0.0 0.0 0.0 0.0 0.0 0.0 0.0 0.0 0.0 0.0 0.0 0.0 0.0 0.0 0.0 0.0 0.0 0.0 0.0 0.0 0.0 0.0 0.0 0.0 0.0 0.0 0 0 0 0 0 0 0.0 0.0 0.0 0.0 0.0 0.0 0.0 0.0 0.0 0.0 0.0 0.0 0.0 0.0 0.0 0 0 0 0 0 0 0.0 0.0 0.0 0.0 0.0 0.0 0.0 0.0 0.0 0 0 0 0.0 0.0 0.0 0.0 0.0 0.0 0.0 0.0 0.0 0 0 0 0.0 0.0 0.0 0 0 0 0 0 0 0 0 0 0 0 0 0 0 0 
0 0 0 0.0 0.0 0.0 0.0 0.0 0.0 0.0 0.0 0.0 0.0 0.0 0.0 0.0 0.0 0.0 0.0 0.0 0.0 0.0 0.0 0.0 0.0 0.0 0.0 0.0 0.0 0.0 0.0 0.0 0.0 -0.07610291930094625 -0.17911085345825625 0.18937953372853722 0 0 0 0 0 0 0.0 0.0 0.0 0.0 0.0 0.0 0.0 0.0 0.0 0.15097158167675503 -0.15541593610985127 0.5003927246634537 -0.48815048714382175 0.23152981732971947 -1.0645422464964058 0 0 0 0 0 0 0.0 0.0 0.0 0.0 0.0 0.0 0.0 0.0 0.0 0 0 0 0.0 0.0 0.0 0.0 0.0 0.0 0.0 0.0 0.0 0 0 0 0.0 0.0 0.0 0 0 0 0 0 0 0 0 0 0 0 0 0 0 0 
0 0 0 0.0 0.0 0.0 0.0 0.0 0.0 0.0 0.0 0.0 0.0 0.0 0.0 0.0 0.0 0.0 0.0 0.0 0.0 0.025007560347669662 0.25705303652560213 0.1409558150171557 0.021858675729498123 -0.009842928816249385 -0.3331260273224867 0.0 0.0 0.0 0.29628080155745745 -0.1718563941720321 0.3223398581340086 -0.48893239365435837 -0.3309576868835914 0.34509594767025614 0 0 0 0 0 0 0.0 0.0 0.0 0.0 0.0 0.0 0.0 0.0 0.0 0.2801886139322279 -0.3047428324159458 0.9756966799464396 -0.9679254624365901 0.44935534903314633 -2.0992170083028148 0 0 0 0 0 0 0.3713759589720444 -0.014284592949732932 -0.0943727580553347 -0.6048323703765465 0.03134000129760675 0.16090554543105615 0.0 0.0 0.0 0 0 0 0.0 0.0 0.0 0.0 0.0 0.0 0.0 0.0 0.0 0 0 0 0.0 0.0 0.0 0 0 0 0 0 0 0 0 0 0 0 0 0 0 0 
0 0 0 0.0 0.0 0.0 0.0 0.0 0.0 0.0 0.0 0.0 0.0 0.0 0.0 -0.2591988683903932 -0.008914802995320147 -0.005980611299178811 0.0 0.0 0.0 0.13822936793599191 0.34603486394352934 0.332543630888663 0.1820699870087621 -0.039087094040542274 -0.6126011403956273 0.0 0.0 0.0 0.4386112128608758 -0.2527636559881245 0.4647268382209694 -0.7139256519058513 -0.47393744117895475 0.49234016471429864 0 0 0 0 0 0 0.0 0.0 0.0 0.0 0.0 0.0 0.0 0.0 0.0 0.66729807196676 -0.44407087059587713 1.4577958478143778 -1.4482003458830155 0.6513311290717624 -3.1401701514914078 0 0 0 0 0 0 0.5569728005677888 -0.02117234757629727 -0.14202032921799934 -0.9072487940731516 0.047240504860805034 0.24217748482486323 0.0 0.0 0.0 0 0 0 0.0 0.0 0.0 0.0 0.0 0.0 0.0 0.0 0.0 0 0 0 0.0 0.0 0.0 0 0 0 0 0 0 0 0 0 0 0 0 0 0 0 
0 0 0 0.0 0.0 0.0 0.0 0.0 0.0 0.0 0.0 0.0 0.0 0.0 0.0 -0.34519492967516585 -0.011868925218643463 -0.008209645959058298 0.0 0.0 0.0 0.18531017641273226 0.46103210071284273 0.4433425953340863 0.2423709203930439 -0.05191880692907385 -0.8161581145252932 0.0 0.0 0.0 0.58636026913171 -0.33973405502833715 0.6191439497767111 -0.9523565154711907 -0.6321998392091022 0.6548271693023443 0 0 0 0 0 0 0.0 0.0 0.0 0.0 0.0 0.0 0.0 0.0 0.0 0.8800204741903481 -0.5906575728135638 1.9359460624513178 -1.9331150014716014 0.8448111357590394 -4.182708554563161 0 0 0 0 0 0 0.7426467461694026 -0.027908281728376987 -0.18970831920062162 -1.209758696189566 0.06355902031249576 0.3233976848367549 0.15233082360351108 0.20911906323364018 0.1951144034179455 0 0 0 0.0 0.0 0.0 0.0 0.0 0.0 0.0 0.0 0.0 0 0 0 0.0 0.0 0.0 0 0 0 0 0 0 0 0 0 0 0 0 0 0 0 
0 0 0 0.0 0.0 0.0 0.0 0.0 0.0 0.0 0.0 0.0 0.0 0.0 0.0 -0.4312230693319901 -0.014827497413195268 -0.010435077056491453 0.0 0.0 0.0 0.2328392006407262 0.5761025654143516 0.5541466176076559 0.3023596409944041 -0.06463916821206261 -1.019601075378521 0.0 0.0 0.0 0.7344396406553398 -0.42796980075356655 0.7734072311798458 -1.1913914314222815 -0.7908839306675195 0.8167926482808007 0 0 0 0 0 0 -0.0785810997074465 0.05533566215944819 -0.25177404376926416 0.17020912512465752 -0.05306431963685306 0.23220588341615925 0.0 0.0 0.0 0.9997509772277965 -0.7489385864290853 2.4307684085329084 -2.425932604182277 1.0359293279242416 -5.223206867349481 0 0 0 0 0 0 0.9283935560215972 -0.0344919972117724 -0.23743519418077821 -1.5123563743076538 0.08029531308571525 0.404562574110183 0.19047046816068502 0.2602102093859779 0.2416378466562806 0 0 0 0.0 0.0 0.0 0.0 0.0 0.0 0.16297007031889746 -0.019117537861267277 -0.25538720486773003 0 0 0 0.0 0.0 0.0 0 0 0 0 0 0 0 0 0 0 0 0 0 0 0 
0 0 0 0.0 0.0 0.0 -0.23749122512154278 -0.015704270139085277 0.15609911263691884 0.0 0.0 0.0 0.0 0.0 0.0 -0.2797082693898731 -0.004866059188612864 -0.1688947781445434 0.0 0.0 0.0 0.28017762878756697 0.6945710373975633 0.6654607431739138 0.36254944588691557 -0.07733037807413526 -1.2232864516603785 0.0 0.0 0.0 0.8828169475063161 -0.5174457037960326 0.9274470167521528 -1.430945457765543 -0.9499085562860334 0.978148287667466 0 0 0 0 0 0 -0.09348259661343104 0.06900502468081701 -0.3030193940014467 0.2027917968406482 -0.06366661266027511 0.2788172103560972 0.0 0.0 0.0 1.192055551298043 -0.8992287966798865 2.9126556218884234 -2.9181406832451993 1.2099909965723452 -6.269288572028301 0 0 0 0 0 0 1.1142089801688495 -0.0409231107518969 -0.285199414688392 -1.8150361193139248 0.09744910727954546 0.4856685821248551 0.22863598753125447 0.3115376430252863 0.2880051848268334 0 0 0 0.0 0.0 0.0 0.0 0.0 0.0 0.19769667830850102 -0.021996970923198116 -0.3080844838215926 0 0 0 0.0 0.0 0.0 0 0 0 0 0 0 0 0 0 0 0 0 0 0 0 
0 0 0 0.0 0.0 0.0 -0.2637787463251792 -0.017404410792886654 0.17339540392840685 0.0 0.0 0.0 0.0 0.0 0.0 -0.3107050549761476 -0.005633690607332556 -0.18769256207840798 0.0 0.0 0.0 0.3122373123735301 0.7718751228091546 0.7393129904093255 0.4021985235042279 -0.08567772270601562 -1.3586214399743821 0.0 0.0 0.0 0.9817666961444521 -0.5777137170957256 1.0299075473818173 -1.590741225433209 -1.056019090956352 1.0852884783342012 0 0 0 0 0 0 -0.10385033340981953 0.07664180631995676 -0.3370231196491107 0.22494921214037505 -0.07059171986984307 0.3097671649873104 0.0 0.0 0.0 1.319351588560967 -0.9995422749665444 3.233335352408033 -3.2469967436157265 1.3193164460181643 -6.966823809709993 0 0 0 0 0 0 1.2379236626192385 -0.045118888885232765 -0.3170112202499306 -2.0165424336651383 0.10909794405838302 0.5396183445632671 0.25405285931321697 0.34583182860130635 0.31878021987020916 0 0 0 0.0 0.0 0.0 0.0 0.0 0.0 0.22081931298433904 -0.023896399164342136 -0.3431715916725908 0 0 0 0.20355447096703355 -0.1363171938503507 -0.14555993778166898 0 0 0 0 0 0 0 0 0 0 0 0 0 0 0 
